<?xml version="1.0" encoding="utf-8"?>
<!-- Generator: Adobe Illustrator 23.1.1, SVG Export Plug-In . SVG Version: 6.00 Build 0)  -->
<svg version="1.1" id="Layer_1" xmlns="http://www.w3.org/2000/svg" xmlns:xlink="http://www.w3.org/1999/xlink" x="0px" y="0px"
	 viewBox="0 0 700 500" style="enable-background:new 0 0 700 500;" xml:space="preserve">
<style type="text/css">
	.st0{fill:#D8885A;}
</style>
<path class="st0" d="M333.11,363.17c-18.23,0.03-36.38,1.01-54.37,4.25c-4.25,0.77-8.56,0.58-12.87-0.28
	c-9.88-1.98-15.01,0.78-18.46,10.09c-2.99,8.03-7.34,15.1-13.07,21.49c-8.8,9.81-16.01,20.81-23,31.94
	c-3.52,5.61-3.38,9.43,0.85,14.43c6.42,7.59,13.17,14.91,19.78,22.34c2.19,2.46,4.96,3.13,8.15,2.86c7.79-0.66,13.3,3.12,17.42,9.31
	c4.84,7.28,0.63,15.66-8.12,16.29c-1.12,0.08-2.26,0.03-3.37-0.06c-6.93-0.58-13.86-0.88-20.81-0.82
	c-5.01,0.04-9.25-1.74-12.38-5.61c-8.51-10.51-17.55-20.53-26.97-30.23c-3.8-3.92-6.63-8.62-8.98-13.56
	c-2.66-5.59-5.06-11.32-7.99-16.76c-2.84-5.28-3.19-10.64-2.09-16.36c1.59-8.29,2.81-16.64,3.62-25.05c0.27-2.8,0.45-5.62,0.39-8.43
	c-0.09-4.34-1.32-5.4-5.64-4.34c-5.09,1.25-10.11,2.87-15.09,4.52c-10.16,3.36-20.35,6.52-30.81,8.89
	c-14.77,3.35-25.14,12.06-30.62,26.35c-5.04,13.14-10.11,26.26-11.84,40.38c-0.55,4.5-1.92,8.8-4.3,12.71
	c-1.58,2.6-3.53,4.85-6.3,6.27c-2.3,1.17-4.81,1.71-7.01,0.35c-4.91-3.05-8.71-6.92-9.05-13.28c-0.47-8.59,1.01-16.75,4.12-24.75
	c7.14-18.39,13.25-37.09,17.02-56.5c0.9-4.61,2.28-9.1,4.26-13.38c2.65-5.72,6.52-10.37,11.45-14.37
	c9.53-7.74,17.32-17.05,23.21-27.87c4.49-8.25,6.44-17.21,6.62-26.5c0.28-14.09,2.81-27.56,9.68-40.06
	c2.06-3.75,4.79-26.16,4.14-30.39c-0.76-4.96-3.17-9.17-5.8-13.3c-10.18-16-19.96-32.23-27.82-49.53
	c-7.71-16.96-14.19-34.36-16.66-52.95c-3.82-28.74,2.47-55.16,18.84-79.14c1.28-1.87,2.64-3.78,4.76-4.69
	c4.4-1.89,7.81-5.13,11.55-7.94c3.15-2.36,6.45-4.51,9.76-6.65c10.92-7.04,23.21-8.84,35.66-7.47c8.69,0.95,17.3,3.74,24.63,9
	c10.63,7.62,13.96,18.63,13.61,31.08c-0.11,3.79-2.04,5.69-5.79,6.6c-4.32,1.05-8.2-0.12-11.67-2.69c-2.41-1.78-4.64-3.81-7.01-5.65
	c-7.91-6.15-16.4-7.13-25.24-2.28c-15.84,8.69-24.78,22-25.89,40.16c-0.7,11.49,0.56,22.84,3.1,34.08
	c2.69,11.92,6.25,23.57,10.63,34.96c4.6,11.98,11.44,22.34,22.03,29.94c1.52,1.09,2.96,2.32,4.28,3.65
	c8.28,8.34,18.15,10.55,29.48,8.23c18.24-3.73,36.66-6.02,55.32-5.82c18.04,0.2,35.95,2.14,53.89,3.81
	c34.21,3.2,68.04,9.2,102.08,13.66c9.52,1.25,18.9,2.69,28.09,5.58c7.26,2.28,14.77,2.4,22.28,0.81c3.12-0.66,6.25-1.26,9.4-1.77
	c9.43-1.53,17.95-5.01,25.71-10.7c7.41-5.43,15.15-10.43,22.36-16.14c4.88-3.87,10.21-6.98,16.06-9.2
	c11.5-4.38,20.94-11.53,28.73-21.04c3.68-4.49,7.78-8.64,11.65-12.99c1.51-1.7,3-2.06,4.79-0.42c1.38,1.27,2.91,2.38,4.27,3.67
	c2.32,2.22,3.45,4.87,2.51,8.13c-0.95,3.28-0.78,6.7-1.08,10.05c-0.45,5.03,1.63,8.73,6.37,10.78c1.03,0.45,2.05,0.94,3.06,1.43
	c8.76,4.18,15.51,10.48,19.89,19.17c3.83,7.6,8.5,14.49,14.78,20.38c6.3,5.92,6.65,9.79,2.53,17.53c-2.2,4.14-4.52,8.23-6.97,12.22
	c-4.09,6.65-10.04,9.91-17.95,9.33c-0.37-0.03-0.76,0-1.12-0.07c-9.41-1.66-17.63,0.61-25.35,6.37c-7.25,5.41-12.54,11.78-16.63,20
	c-5.93,11.92-7.93,23.85-6.29,36.96c1.8,14.34,1.57,28.82,1.55,43.28c-0.01,12.5,4.23,23.9,10.39,34.65
	c8.42,14.71,18.38,28.32,29.6,41.01c7.83,8.87,16.2,17.22,24.87,25.26c3.64,3.38,7.51,5.08,12.72,4.41
	c5.85-0.76,11.05,1.82,15.65,5.22c3.41,2.52,3.89,6.28,2.94,10.19c-0.87,3.56-3,6.09-6.78,6.67c-8.16,1.25-16.31,2.52-24.63,1.34
	c-6.12-0.87-11.62-3.06-16.25-7.13c-2.89-2.54-6.02-4.4-9.79-5.24c-4.58-1.02-8.15-3.79-11.22-7.16
	c-10.18-11.18-21.69-20.66-34.7-28.44c-9.21-5.51-17.27-12.61-25.16-19.85c-5.4-4.95-10.69-10-16.03-15
	c-3.97-3.71-7.96-7.36-10.79-12.14c-1.72-2.91-4.42-5.09-7.1-7.17c-5.05-3.92-10.57-7.14-16-10.49c-2.29-1.42-4.94-2.54-7.49-1.34
	c-6.71,3.15-14,2.14-20.97,3.36c-3.14,0.55-6.35,0.7-9.47,1.3c-5.19,1.01-9.59,3.55-12.28,8.19c-12.13,20.95-24.28,41.9-32.4,64.85
	c-0.25,0.71-0.53,1.41-0.77,2.11c-2.75,7.95-2.25,9.44,4.97,12.77c5.36,2.47,7.6,7.05,7.64,12.75c0.05,6.27-2.52,9.29-8.76,10.14
	c-7.06,0.96-14.13,2-21.3,1.69c-8.7-0.37-11.98-3.37-11.88-12.15c0.19-16.34,1.67-32.59,4.7-48.67c3.5-18.61,7.04-37.22,10.54-55.83
	c0.7-3.71,0.49-3.99-3.06-5.33c-7.43-2.8-14.96-4.82-23.04-4.33C342.51,363.4,337.81,363.17,333.11,363.17z"/>
</svg>
