<svg id="Layer_1" data-name="Layer 1" xmlns="http://www.w3.org/2000/svg" viewBox="0 0 3253.52 491"><defs><style>.cls-1{fill:#d8885a;}</style></defs><title>navbar_logo</title><path class="cls-1" d="M3625.46,415.94c-18.22,0-36.37,1-54.36,4.25a34.22,34.22,0,0,1-12.87-.28c-9.88-2-15,.78-18.46,10.08a66.43,66.43,0,0,1-13.07,21.49c-8.8,9.81-16,20.81-23,31.94-3.53,5.61-3.38,9.44.84,14.43,6.42,7.6,13.17,14.91,19.78,22.34,2.19,2.46,5,3.13,8.15,2.86,7.79-.67,13.3,3.12,17.41,9.31,4.85,7.28.64,15.66-8.12,16.29a22.31,22.31,0,0,1-3.37-.06c-6.93-.59-13.87-.88-20.81-.82a15,15,0,0,1-12.38-5.61c-8.51-10.52-17.56-20.53-27-30.24a50.35,50.35,0,0,1-9-13.56c-2.66-5.59-5.06-11.32-8-16.76-2.84-5.28-3.19-10.64-2.09-16.36q2.39-12.44,3.62-25.05a71.8,71.8,0,0,0,.39-8.42c-.09-4.34-1.32-5.41-5.64-4.34-5.09,1.25-10.11,2.87-15.09,4.52-10.16,3.36-20.36,6.52-30.81,8.89-14.77,3.35-25.14,12.05-30.62,26.35-5.05,13.14-10.12,26.26-11.85,40.38a31.42,31.42,0,0,1-4.3,12.71,15.87,15.87,0,0,1-6.3,6.26c-2.3,1.18-4.81,1.72-7,.35-4.91-3-8.71-6.92-9.06-13.28a58.83,58.83,0,0,1,4.12-24.75c7.14-18.38,13.25-37.09,17-56.49A57.75,57.75,0,0,1,3367.9,419a40,40,0,0,1,11.46-14.37,93,93,0,0,0,23.21-27.88,57,57,0,0,0,6.62-26.5c.28-14.09,2.81-27.56,9.68-40.06,2.06-3.76,4.79-26.16,4.14-30.4-.76-5-3.17-9.16-5.8-13.3-10.18-16-20-32.23-27.82-49.53-7.71-17-14.19-34.36-16.66-52.95q-5.73-43.11,18.84-79.14c1.28-1.87,2.64-3.78,4.76-4.69,4.4-1.88,7.81-5.13,11.56-7.94,3.15-2.35,6.45-4.51,9.76-6.64,10.92-7,23.21-8.84,35.66-7.48a51.86,51.86,0,0,1,24.64,9c10.62,7.62,14,18.64,13.6,31.09-.1,3.79-2,5.69-5.79,6.6-4.32,1-8.2-.12-11.67-2.69-2.41-1.78-4.64-3.81-7-5.65-7.91-6.15-16.4-7.13-25.24-2.28-15.84,8.69-24.78,22-25.89,40.16a120.67,120.67,0,0,0,3.1,34.07,251.63,251.63,0,0,0,10.63,35c4.6,12,11.44,22.34,22,29.95A33.82,33.82,0,0,1,3456,237c8.28,8.34,18.15,10.55,29.48,8.23,18.24-3.73,36.66-6,55.33-5.82,18,.2,35.95,2.14,53.89,3.81,34.21,3.2,68,9.2,102.07,13.67,9.52,1.25,18.9,2.69,28.09,5.58a43.47,43.47,0,0,0,22.28.8c3.12-.66,6.25-1.26,9.4-1.77a58.51,58.51,0,0,0,25.71-10.7c7.42-5.44,15.15-10.43,22.37-16.15a60.39,60.39,0,0,1,16-9.2,67.81,67.81,0,0,0,28.73-21c3.68-4.49,7.78-8.64,11.65-13,1.51-1.7,3-2.06,4.79-.41,1.38,1.26,2.91,2.37,4.27,3.67,2.32,2.22,3.45,4.86,2.51,8.13s-.78,6.7-1.08,10.05c-.45,5,1.63,8.73,6.37,10.78,1,.45,2,.95,3.06,1.43a41.64,41.64,0,0,1,19.89,19.17,71.47,71.47,0,0,0,14.78,20.38c6.3,5.92,6.65,9.79,2.53,17.53-2.2,4.14-4.52,8.23-7,12.22-4.09,6.65-10,9.91-18,9.33a10.36,10.36,0,0,1-1.12-.07c-9.41-1.66-17.63.61-25.35,6.37a54.15,54.15,0,0,0-16.63,20,62.51,62.51,0,0,0-6.29,37c1.8,14.34,1.57,28.83,1.55,43.28,0,12.5,4.23,23.9,10.39,34.66a248.61,248.61,0,0,0,29.6,41c7.83,8.87,16.2,17.22,24.87,25.26,3.64,3.38,7.51,5.09,12.72,4.41,5.85-.76,11.05,1.82,15.65,5.22,3.41,2.52,3.89,6.28,2.94,10.19-.86,3.56-3,6.09-6.78,6.67-8.16,1.25-16.31,2.52-24.63,1.34a30.41,30.41,0,0,1-16.25-7.13,21.73,21.73,0,0,0-9.79-5.24c-4.59-1-8.15-3.8-11.22-7.17A152.51,152.51,0,0,0,3838.2,491c-9.21-5.5-17.27-12.61-25.16-19.84-5.4-4.95-10.69-10-16-15-4-3.72-8-7.37-10.79-12.14-1.72-2.91-4.42-5.09-7.1-7.17a178.24,178.24,0,0,0-16-10.49c-2.29-1.42-4.93-2.54-7.48-1.34-6.71,3.15-14,2.14-21,3.36-3.14.54-6.35.69-9.47,1.3-5.19,1-9.59,3.55-12.28,8.19-12.13,20.95-24.28,41.9-32.4,64.85-.25.71-.53,1.41-.77,2.12-2.75,7.95-2.26,9.44,5,12.77,5.36,2.47,7.6,7.06,7.64,12.75,0,6.27-2.51,9.3-8.76,10.15-7.06,1-14.13,2-21.3,1.69-8.69-.37-12-3.36-11.88-12.15a280.94,280.94,0,0,1,4.7-48.66q5.25-27.93,10.54-55.83c.7-3.71.49-4-3.06-5.34-7.42-2.8-15-4.82-23-4.32C3634.86,416.17,3630.16,415.94,3625.46,415.94Z" transform="translate(-688.48 -57.69)"/><path class="cls-1" d="M872.76,548.69c-31.7-.61-59.1-5.44-84.94-17.36-52-24-83.49-64.56-94.69-120.37-7.46-37.18-6.56-74.42,7.21-110.2,23.63-61.38,69-97.39,133.15-109.68,37.52-7.18,74.33-3.84,109.75,11.2,3.43,1.46,6.79,3.1,10.13,4.75,10.37,5.15,16.19,13.27,16.29,25.09.12,12.49-5,22.54-15.48,29-9.28,5.72-19.2,4-28.61-.42a118.15,118.15,0,0,0-37.38-11.08c-25.18-2.9-49.8-.72-72.84,10.63-35,17.24-53,46.7-58.9,84.27a155.67,155.67,0,0,0,3,62.9c11.3,44.67,41.06,69.79,85.44,78,27.47,5.09,54.35,2.5,80.2-9.51,21.27-9.88,41.12,1,44.79,23.51,2,12.18-3.13,23-14.26,28.78a177.41,177.41,0,0,1-63,19C884.9,548.09,877.12,548.39,872.76,548.69Z" transform="translate(-688.48 -57.69)"/><path class="cls-1" d="M1473.53,384.63c0,41.66-.72,83.34.27,125,.57,23.77-21.75,38.95-44.11,32.37-12.74-3.75-21-14-21.76-27.19-.17-3.1-.1-6.22-.1-9.33V262c0-2.49-.19-5,0-7.46.39-4.49-1.57-6-6-5.95-15.87.15-31.75.06-47.62,0-9.34,0-18.7.36-28-.2-17.63-1.06-28.56-12.63-28.47-29.39.07-14.65,10.06-26.19,24.61-28.16a83.36,83.36,0,0,1,11.18-.47q106.92,0,213.82,0c3.11,0,6.24,0,9.33.23,15.14,1.25,25.72,11.63,26.79,26.16,1.18,16.06-7.55,27.8-23.36,30.94a63.89,63.89,0,0,1-12.06.87c-22.1.08-44.2,0-66.3.06-8.16,0-8.26.11-8.27,8.16Q1473.5,320.74,1473.53,384.63Z" transform="translate(-688.48 -57.69)"/><path class="cls-1" d="M1298.89,500.17Q1260.56,409.1,1222.32,318q-23.11-55-46.17-110c-5.55-13.23-15.68-19.57-29.88-19.78-13.86-.2-22.69,7-28.25,19.09-.65,1.41-1.21,2.86-1.81,4.29q-61,146.25-122,292.48a50.48,50.48,0,0,0-3.8,12.45c-2.28,16.53,8.05,28.75,24.68,29.24,13.25.4,22.79-5.65,28.41-18.58,7.92-18.24,15.86-36.48,23.19-55,2.5-6.32,6.06-8.23,12.55-8,13.68.44,27.39.13,41.08.13,30.19,0,60.39.3,90.57-.21,7.6-.13,11.11,2.45,13.66,9.22,4.25,11.34,9.36,22.35,14.17,33.47,3.21,7.41,6.13,15,9.88,22.12,5.39,10.28,13.65,16.8,25.89,16.87,13.39,0,24.44-9,27.6-22.09C1304.1,515.36,1302.08,507.75,1298.89,500.17Zm-203.42-94.85,48.36-114.23,2.2.2c16.29,37.75,32.59,75.49,49.22,114Z" transform="translate(-688.48 -57.69)"/><path class="cls-1" d="M2926.88,366.48q0-71.33,0-142.67c0-6,.59-11.81,3.48-17.14,4.71-8.72,11.79-14.34,21.79-15.75a67,67,0,0,1,9.29-.56q81.21-.06,162.43,0a60.13,60.13,0,0,1,10.21.75,28.94,28.94,0,0,1,23.95,29.1c-.1,14-9,24.5-23.22,27.47a58.16,58.16,0,0,1-12.06.85q-61.16,0-122.29,0c-11.33,0-10.16-.12-10.17,10.06q0,33.57,0,67.14c0,8.09.11,8.22,8.26,8.23,33.29.06,66.58,0,99.88.06a80,80,0,0,1,12.09.67c14.42,2.18,24.32,13.69,24.69,28.39.37,14.44-8.55,25.22-23.24,28.31a67.15,67.15,0,0,1-13.93,1h-95.21c-2.18,0-4.37.14-6.53,0-4.27-.32-6.12,1.22-6.09,5.81q.22,40.56,0,81.13c0,5.15,2.27,6.27,6.76,6.19,10-.17,19.91,0,29.87,0,33,0,66,.11,98.95-.07,9.58-.05,17.71,2.65,24.26,9.74,14.87,16.06,7.92,40.93-13.13,46.91a43.14,43.14,0,0,1-12,1.5q-82.14-.06-164.28-.05c-21.6,0-33.68-12-33.71-33.44Q2926.81,438.29,2926.88,366.48Z" transform="translate(-688.48 -57.69)"/><path class="cls-1" d="M2104.21,548.69c-28.66-.39-56.3-5.52-82.4-17.65-51.63-24-82.87-64.38-94-119.8-7.43-36.84-6.62-73.73,6.76-109.33,23-61.26,67.79-97.51,131.41-110.44,38.06-7.74,75.53-4.62,111.59,10.73,3.42,1.46,6.81,3,10.15,4.69C2198,212,2204,220,2204.23,231.81c.22,12.51-4.83,22.56-15.23,29.18-9.19,5.83-19.13,4.28-28.58-.14a120,120,0,0,0-34.6-10.72c-23.17-3.18-46-2-68,6.68-32.6,12.87-53.36,36.83-63,70.21-8.39,29.11-7.78,58.51,1.16,87.33,13.08,42.13,43.51,64.49,85.92,71.56,27,4.5,53.08,1.49,78.31-10.19,21-9.72,41.61,2.2,44.27,24.38,1.52,12.69-3.48,22.72-14.88,28.49a178.29,178.29,0,0,1-67.76,19.12C2116,548.15,2110.11,548.37,2104.21,548.69Z" transform="translate(-688.48 -57.69)"/><path class="cls-1" d="M2859.58,495.56c-8.7-5.39-12.19-12.74-13.29-22.11-1.23-10.48-2.41-21-3.72-31.44-2.23-17.87-9.38-33.39-22.43-46-3.35-3.23-6.91-6.24-11.1-10,1.74-1.44,2.91-2.43,4.1-3.39,32.15-25.91,48-58.69,42.77-100.51-6.25-50.32-49-92.91-101.94-91.87-27.39.54-54.79.09-82.18.09-20.23,0-40.47-.26-60.7.11-18.52.33-30.11,12.13-30.81,30.47-.09,2.49,0,5,0,7.46V505.44c0,3.11,0,6.22.14,9.32.43,7.54,3.74,13.67,9.31,18.68a39.68,39.68,0,0,0,23.65,10c15,1.34,26.91-7.79,29.33-22.63a80.65,80.65,0,0,0,.69-13c.06-28.3,0-56.59.06-84.89,0-7.72.15-7.84,7.7-7.86q34.08-.11,68.17,0c8.72,0,17.47-.39,26.14.32,24.52,2,38.5,17.23,38.12,39.72a153.15,153.15,0,0,0,1.45,22.32c2.26,17.49,7,34.14,18.93,47.83,10.75,12.37,24,19.52,40.88,18.69,13-.63,22.43-7.18,25.67-18C2873.81,514.84,2870,502,2859.58,495.56ZM2789.7,316.49A72.14,72.14,0,0,1,2774.32,351c-6.48,7.86-14.39,12-25.05,11.87-32.35-.38-64.71-.12-97.06-.15-8.69,0-8.78-.09-8.79-8.68q-.08-48.48,0-97c0-8.45.11-8.52,9-8.55,16.8-.05,33.6,0,50.4,0,15.55,0,31.12.38,46.66-.12,13.21-.42,22.53,5.62,30,15.65C2791.27,279.9,2792.84,297.85,2789.7,316.49Z" transform="translate(-688.48 -57.69)"/><path class="cls-1" d="M2533.59,500.46q-19.17-45.49-38.27-91-42-100.06-84-200.15c-5.83-13.95-15.94-20.89-29.34-21.19-10.87-.05-18.41,3.65-24.31,10.79-3,3.65-4.88,7.89-6.68,12.21q-61.11,146.62-122.25,293.22a54.7,54.7,0,0,0-3.42,10.61c-3.37,17.65,7.57,30.83,25.5,31,13.51.09,22.18-7,27.32-18.85,8.07-18.5,16.07-37,23.61-55.76,2.24-5.58,5.39-7.17,11.13-7.15q67.2.31,134.39,0c5.93,0,8.79,2,11,7.39,7.06,17.24,14.66,34.25,22,51.39,2.21,5.18,4.69,10.16,8.7,14.22,7.61,7.71,16.84,10.78,27.26,7.85,11-3.09,18-10.45,20.61-21.87C2538.64,515,2536.65,507.73,2533.59,500.46Zm-203.65-94.83L2378.43,291c4.75,5.25,46.05,99,50.58,114.65Z" transform="translate(-688.48 -57.69)"/></svg>